<svg id="visual" viewBox="0 0 1920 1080" width="1920" height="1080" xmlns="http://www.w3.org/2000/svg" xmlns:xlink="http://www.w3.org/1999/xlink" version="1.1"><rect x="0" y="0" width="1920" height="1080" fill="#FFFFFF"></rect><defs><linearGradient id="grad1_0" x1="43.8%" y1="0%" x2="100%" y2="100%"><stop offset="14.444444444444446%" stop-color="#ffffff" stop-opacity="1"></stop><stop offset="85.55555555555554%" stop-color="#ffffff" stop-opacity="1"></stop></linearGradient></defs><defs><linearGradient id="grad2_0" x1="0%" y1="0%" x2="56.3%" y2="100%"><stop offset="14.444444444444446%" stop-color="#ffffff" stop-opacity="1"></stop><stop offset="85.55555555555554%" stop-color="#ffffff" stop-opacity="1"></stop></linearGradient></defs><g transform="translate(1920, 0)"><path d="M0 972C-116.7 948.5 -233.5 924.9 -367.8 887.8C-502.1 850.7 -653.9 800.1 -687.3 687.3C-720.7 574.5 -635.6 399.7 -663.3 274.8C-691.1 149.9 -831.5 74.9 -972 0L0 0Z" fill="#CCCCCC"></path></g><g transform="translate(0, 1080)"><path d="M0 -972C147.5 -977.7 295 -983.5 372 -898C448.9 -812.5 455.3 -635.8 543.8 -543.8C632.2 -451.7 802.8 -444.3 887.8 -367.8C972.9 -291.2 972.5 -145.6 972 0L0 0Z" fill="#CCCCCC"></path></g></svg>